<svg xmlns="http://www.w3.org/2000/svg" xmlns:xlink="http://www.w3.org/1999/xlink" width="1000" zoomAndPan="magnify" viewBox="0 0 750 374.999991" height="500" preserveAspectRatio="xMidYMid meet" version="1.0"><defs><g/><clipPath id="b2a7631a09"><rect x="0" width="677" y="0" height="175"/></clipPath></defs><g transform="matrix(1, 0, 0, 1, 37, 100)"><g clip-path="url(#b2a7631a09)"><g fill="#5b5b5b" fill-opacity="1"><g transform="translate(0.500007, 131.793434)"><g><path d="M 26.640625 0 L 2.28125 -66.40625 L 20.21875 -66.40625 L 37.09375 -16.203125 L 53.953125 -66.40625 L 71.90625 -66.40625 L 47.390625 0 Z M 26.640625 0 "/></g></g></g><g fill="#5b5b5b" fill-opacity="1"><g transform="translate(74.542664, 131.793434)"><g><path d="M 40.96875 1.609375 C 34.269531 1.609375 28.332031 0.179688 23.15625 -2.671875 C 17.976562 -5.535156 13.914062 -9.554688 10.96875 -14.734375 C 8.03125 -19.910156 6.5625 -25.890625 6.5625 -32.671875 C 6.5625 -39.546875 8.007812 -45.660156 10.90625 -51.015625 C 13.8125 -56.367188 17.828125 -60.539062 22.953125 -63.53125 C 28.085938 -66.519531 34.140625 -68.015625 41.109375 -68.015625 C 47.617188 -68.015625 53.375 -66.585938 58.375 -63.734375 C 63.375 -60.878906 67.28125 -56.972656 70.09375 -52.015625 C 72.90625 -47.054688 74.3125 -41.546875 74.3125 -35.484375 C 74.3125 -34.503906 74.285156 -33.476562 74.234375 -32.40625 C 74.191406 -31.332031 74.128906 -30.210938 74.046875 -29.046875 L 23.5625 -29.046875 C 23.914062 -23.867188 25.722656 -19.804688 28.984375 -16.859375 C 32.242188 -13.921875 36.195312 -12.453125 40.84375 -12.453125 C 44.320312 -12.453125 47.242188 -13.234375 49.609375 -14.796875 C 51.972656 -16.359375 53.734375 -18.390625 54.890625 -20.890625 L 72.296875 -20.890625 C 71.046875 -16.691406 68.96875 -12.875 66.0625 -9.4375 C 63.164062 -6 59.597656 -3.296875 55.359375 -1.328125 C 51.117188 0.628906 46.320312 1.609375 40.96875 1.609375 Z M 41.109375 -54.09375 C 36.910156 -54.09375 33.203125 -52.910156 29.984375 -50.546875 C 26.773438 -48.179688 24.722656 -44.585938 23.828125 -39.765625 L 56.90625 -39.765625 C 56.632812 -44.140625 55.023438 -47.617188 52.078125 -50.203125 C 49.140625 -52.796875 45.484375 -54.09375 41.109375 -54.09375 Z M 41.109375 -54.09375 "/></g></g></g><g fill="#5b5b5b" fill-opacity="1"><g transform="translate(154.610502, 131.793434)"><g><path d="M 2.40625 0 L 26.515625 -33.203125 L 2.40625 -66.40625 L 20.75 -66.40625 L 37.625 -42.84375 L 54.359375 -66.40625 L 72.84375 -66.40625 L 48.609375 -33.203125 L 72.84375 0 L 54.359375 0 L 37.625 -23.5625 L 20.75 0 Z M 2.40625 0 "/></g></g></g><g fill="#5b5b5b" fill-opacity="1"><g transform="translate(229.724314, 131.793434)"><g><path d="M 31.59375 1.609375 C 25.882812 1.609375 21.195312 0.691406 17.53125 -1.140625 C 13.875 -2.972656 11.148438 -5.40625 9.359375 -8.4375 C 7.578125 -11.46875 6.6875 -14.816406 6.6875 -18.484375 C 6.6875 -24.640625 9.097656 -29.632812 13.921875 -33.46875 C 18.742188 -37.3125 25.972656 -39.234375 35.609375 -39.234375 L 52.484375 -39.234375 L 52.484375 -40.84375 C 52.484375 -45.394531 51.1875 -48.738281 48.59375 -50.875 C 46.007812 -53.019531 42.800781 -54.09375 38.96875 -54.09375 C 35.476562 -54.09375 32.4375 -53.265625 29.84375 -51.609375 C 27.257812 -49.960938 25.65625 -47.53125 25.03125 -44.3125 L 8.296875 -44.3125 C 8.742188 -49.132812 10.375 -53.332031 13.1875 -56.90625 C 16 -60.476562 19.632812 -63.222656 24.09375 -65.140625 C 28.5625 -67.054688 33.5625 -68.015625 39.09375 -68.015625 C 48.550781 -68.015625 56.003906 -65.648438 61.453125 -60.921875 C 66.898438 -56.191406 69.625 -49.5 69.625 -40.84375 L 69.625 0 L 55.03125 0 L 53.421875 -10.71875 C 51.460938 -7.144531 48.71875 -4.195312 45.1875 -1.875 C 41.664062 0.445312 37.132812 1.609375 31.59375 1.609375 Z M 35.484375 -11.78125 C 40.390625 -11.78125 44.203125 -13.382812 46.921875 -16.59375 C 49.648438 -19.8125 51.367188 -23.785156 52.078125 -28.515625 L 37.484375 -28.515625 C 32.929688 -28.515625 29.671875 -27.6875 27.703125 -26.03125 C 25.742188 -24.382812 24.765625 -22.359375 24.765625 -19.953125 C 24.765625 -17.359375 25.742188 -15.347656 27.703125 -13.921875 C 29.671875 -12.492188 32.265625 -11.78125 35.484375 -11.78125 Z M 35.484375 -11.78125 "/></g></g></g><g fill="#f97627" fill-opacity="1"><g transform="translate(307.000751, 131.793434)"><g><path d="M 9.109375 0 L 9.109375 -93.71875 L 29.453125 -93.71875 L 59.3125 -34.28125 L 88.765625 -93.71875 L 109.125 -93.71875 L 109.125 0 L 91.984375 0 L 91.984375 -64.671875 L 65.875 -13.390625 L 52.34375 -13.390625 L 26.25 -64.671875 L 26.25 0 Z M 9.109375 0 "/></g></g></g><g fill="#f97627" fill-opacity="1"><g transform="translate(425.228012, 131.793434)"><g><path d="M 17.9375 -76.71875 C 14.8125 -76.71875 12.242188 -77.65625 10.234375 -79.53125 C 8.234375 -81.40625 7.234375 -83.769531 7.234375 -86.625 C 7.234375 -89.476562 8.234375 -91.820312 10.234375 -93.65625 C 12.242188 -95.488281 14.8125 -96.40625 17.9375 -96.40625 C 21.0625 -96.40625 23.628906 -95.488281 25.640625 -93.65625 C 27.648438 -91.820312 28.65625 -89.476562 28.65625 -86.625 C 28.65625 -83.769531 27.648438 -81.40625 25.640625 -79.53125 C 23.628906 -77.65625 21.0625 -76.71875 17.9375 -76.71875 Z M 9.375 0 L 9.375 -66.40625 L 26.515625 -66.40625 L 26.515625 0 Z M 9.375 0 "/></g></g></g><g fill="#f97627" fill-opacity="1"><g transform="translate(460.977364, 131.793434)"><g><path d="M 8.703125 0 L 8.703125 -66.40625 L 23.828125 -66.40625 L 25.171875 -55.15625 C 27.222656 -59.082031 30.191406 -62.207031 34.078125 -64.53125 C 37.960938 -66.851562 42.535156 -68.015625 47.796875 -68.015625 C 56.003906 -68.015625 62.382812 -65.425781 66.9375 -60.25 C 71.5 -55.070312 73.78125 -47.484375 73.78125 -37.484375 L 73.78125 0 L 56.640625 0 L 56.640625 -35.875 C 56.640625 -41.59375 55.476562 -45.96875 53.15625 -49 C 50.832031 -52.039062 47.21875 -53.5625 42.3125 -53.5625 C 37.488281 -53.5625 33.535156 -51.863281 30.453125 -48.46875 C 27.378906 -45.070312 25.84375 -40.34375 25.84375 -34.28125 L 25.84375 0 Z M 8.703125 0 "/></g></g></g><g fill="#f97627" fill-opacity="1"><g transform="translate(542.384139, 131.793434)"><g><path d="M 40.96875 1.609375 C 34.269531 1.609375 28.332031 0.179688 23.15625 -2.671875 C 17.976562 -5.535156 13.914062 -9.554688 10.96875 -14.734375 C 8.03125 -19.910156 6.5625 -25.890625 6.5625 -32.671875 C 6.5625 -39.546875 8.007812 -45.660156 10.90625 -51.015625 C 13.8125 -56.367188 17.828125 -60.539062 22.953125 -63.53125 C 28.085938 -66.519531 34.140625 -68.015625 41.109375 -68.015625 C 47.617188 -68.015625 53.375 -66.585938 58.375 -63.734375 C 63.375 -60.878906 67.28125 -56.972656 70.09375 -52.015625 C 72.90625 -47.054688 74.3125 -41.546875 74.3125 -35.484375 C 74.3125 -34.503906 74.285156 -33.476562 74.234375 -32.40625 C 74.191406 -31.332031 74.128906 -30.210938 74.046875 -29.046875 L 23.5625 -29.046875 C 23.914062 -23.867188 25.722656 -19.804688 28.984375 -16.859375 C 32.242188 -13.921875 36.195312 -12.453125 40.84375 -12.453125 C 44.320312 -12.453125 47.242188 -13.234375 49.609375 -14.796875 C 51.972656 -16.359375 53.734375 -18.390625 54.890625 -20.890625 L 72.296875 -20.890625 C 71.046875 -16.691406 68.96875 -12.875 66.0625 -9.4375 C 63.164062 -6 59.597656 -3.296875 55.359375 -1.328125 C 51.117188 0.628906 46.320312 1.609375 40.96875 1.609375 Z M 41.109375 -54.09375 C 36.910156 -54.09375 33.203125 -52.910156 29.984375 -50.546875 C 26.773438 -48.179688 24.722656 -44.585938 23.828125 -39.765625 L 56.90625 -39.765625 C 56.632812 -44.140625 55.023438 -47.617188 52.078125 -50.203125 C 49.140625 -52.796875 45.484375 -54.09375 41.109375 -54.09375 Z M 41.109375 -54.09375 "/></g></g></g><g fill="#f97627" fill-opacity="1"><g transform="translate(622.451977, 131.793434)"><g><path d="M 8.703125 0 L 8.703125 -66.40625 L 23.96875 -66.40625 L 25.578125 -53.953125 C 27.984375 -58.242188 31.257812 -61.660156 35.40625 -64.203125 C 39.5625 -66.742188 44.453125 -68.015625 50.078125 -68.015625 L 50.078125 -49.9375 L 45.25 -49.9375 C 41.5 -49.9375 38.148438 -49.351562 35.203125 -48.1875 C 32.265625 -47.03125 29.96875 -45.023438 28.3125 -42.171875 C 26.664062 -39.316406 25.84375 -35.347656 25.84375 -30.265625 L 25.84375 0 Z M 8.703125 0 "/></g></g></g></g></g></svg>
